<svg width="1128" height="1128" viewBox="0 0 1128 1128" fill="none" xmlns="http://www.w3.org/2000/svg">
<path d="M488.719 265.754C488.719 213.547 523.009 151.995 565.308 151.995C607.606 151.995 641.897 213.547 641.896 265.754C641.896 369.744 565.308 441.968 565.308 441.968C565.308 441.968 488.719 369.744 488.719 265.754Z" fill="#140F07" style="fill:#140F07;fill:color(display-p3 0.0800 0.0570 0.0288);fill-opacity:1;"/>
<path d="M265.754 639.281C213.547 639.281 151.995 604.991 151.995 562.692C151.995 520.394 213.547 486.103 265.754 486.103C369.744 486.104 441.968 562.692 441.968 562.692C441.968 562.692 369.744 639.281 265.754 639.281Z" fill="#140F07" style="fill:#140F07;fill:color(display-p3 0.0800 0.0570 0.0288);fill-opacity:1;"/>
<path d="M639.281 862.246C639.281 914.453 604.991 976.005 562.692 976.005C520.394 976.005 486.103 914.453 486.104 862.246C486.104 758.256 562.692 686.032 562.692 686.032C562.692 686.032 639.281 758.256 639.281 862.246Z" fill="#140F07" style="fill:#140F07;fill:color(display-p3 0.0800 0.0570 0.0288);fill-opacity:1;"/>
<path d="M862.246 488.719C914.453 488.719 976.005 523.009 976.005 565.308C976.005 607.606 914.453 641.897 862.246 641.896C758.256 641.896 686.032 565.308 686.032 565.308C686.032 565.308 758.256 488.719 862.246 488.719Z" fill="#140F07" style="fill:#140F07;fill:color(display-p3 0.0800 0.0570 0.0288);fill-opacity:1;"/>
<path d="M721.698 300.669C758.671 263.695 826.359 244.2 856.084 273.925C885.809 303.65 866.314 371.338 829.341 408.312C755.695 481.958 650.724 479.285 650.724 479.285C650.724 479.285 648.052 374.315 721.698 300.669Z" fill="#140F07" style="fill:#140F07;fill:color(display-p3 0.0800 0.0570 0.0288);fill-opacity:1;"/>
<path d="M300.668 406.473C263.694 369.5 244.199 301.812 273.924 272.087C303.649 242.362 371.337 261.857 408.311 298.83C481.957 372.476 479.284 477.447 479.284 477.447C479.284 477.447 374.314 480.119 300.668 406.473Z" fill="#140F07" style="fill:#140F07;fill:color(display-p3 0.0800 0.0570 0.0288);fill-opacity:1;"/>
<path d="M406.473 827.503C369.5 864.477 301.812 883.971 272.087 854.247C242.362 824.522 261.857 756.834 298.83 719.86C372.476 646.214 477.447 648.887 477.447 648.887C477.447 648.887 480.119 753.857 406.473 827.503Z" fill="#140F07" style="fill:#140F07;fill:color(display-p3 0.0800 0.0570 0.0288);fill-opacity:1;"/>
<path d="M827.503 721.698C864.477 758.672 883.971 826.36 854.247 856.085C824.522 885.809 756.834 866.315 719.86 829.341C646.214 755.695 648.887 650.725 648.887 650.725C648.887 650.725 753.857 648.052 827.503 721.698Z" fill="#140F07" style="fill:#140F07;fill:color(display-p3 0.0800 0.0570 0.0288);fill-opacity:1;"/>
</svg>
